<?xml version="1.0" encoding="utf-8"?>
<!-- Generator: Adobe Illustrator 16.0.0, SVG Export Plug-In . SVG Version: 6.00 Build 0)  -->
<!DOCTYPE svg PUBLIC "-//W3C//DTD SVG 1.1//EN" "http://www.w3.org/Graphics/SVG/1.1/DTD/svg11.dtd">
<svg version="1.1" id="Layer_1" xmlns="http://www.w3.org/2000/svg" xmlns:xlink="http://www.w3.org/1999/xlink" x="0px" y="0px"
	 width="512px" height="512px" viewBox="0 0 512 512" enable-background="new 0 0 512 512" xml:space="preserve">
<g>
	<path fill="#4C4C4C" d="M249.359,243.266c0-45.581,0.195-89.38-0.157-133.672c-0.07-9.32,0.209-16.76,0.209-27.011
		C137.277,77.83,41.937,143.875,23.529,243.266C98.786,243.266,170.826,243.266,249.359,243.266z"/>
	<path fill="#4C4C4C" d="M269.105,82.898c0,53.125,0,106.327,0,162.105c73.766,0,144.863,0,219.365,0
		C474.233,146.939,377.872,77.283,269.105,82.898z"/>
	<path fill="#4C4C4C" d="M249.267,429.596c0-53.069,0-106.258,0-163.048c-76.785,0-149.466,0-222.224,0
		C31.168,359.5,132.582,433.649,249.267,429.596z"/>
	<path fill="#4C4C4C" d="M269.408,430.258c123.591-5.039,215.36-74.758,216.124-162.614c-71.872,0-143.681,0-216.124,0
		C269.408,324.293,269.408,377.248,269.408,430.258z"/>
</g>
</svg>
